<svg width="32" height="32" viewBox="0 0 32 32" fill="none" xmlns="http://www.w3.org/2000/svg">
<path d="M27.8495 8.22381L16.2048 4L4.52021 8.22381C4.20008 8.34223 4 8.61856 4 8.97383L4.2401 15.5267C4.40016 20.9347 7.16125 24.9611 11.483 27.5665C11.8831 27.8033 12.4033 27.6454 12.6034 27.2112L15.1244 21.3689C15.2044 21.1716 15.0844 20.9347 14.8843 20.8558C13.0436 20.3031 11.683 18.6057 11.683 16.5925C11.683 14.145 13.6838 12.1713 16.1648 12.1713C18.6458 12.1713 20.6466 14.145 20.6466 16.5925C20.6466 18.6057 19.2861 20.3031 17.4453 20.8558C17.2453 20.9347 17.1252 21.1716 17.2052 21.3689L19.7262 27.2112C19.9263 27.6454 20.4465 27.8033 20.8467 27.5665C25.1684 24.9611 27.9295 20.9347 28.0896 15.5267L28.3297 8.97383C28.3697 8.65804 28.1696 8.34223 27.8495 8.22381Z" fill="#2684FF"/>
<path d="M16.2051 12.2567C18.6861 12.2567 20.6869 14.2607 20.6869 16.7458C20.6869 18.7899 19.3263 20.5134 17.4856 21.0745C17.2855 21.1547 17.1655 21.3952 17.2455 21.5956L19.7665 27.5276C19.9666 27.9685 20.4868 28.1288 20.8869 27.8883C25.2087 25.2429 27.9697 21.1547 28.1298 15.6636L28.3699 9.01013C28.3699 8.68948 28.1698 8.36884 27.8497 8.24859L16.2051 4V12.2567Z" fill="url(#paint0_linear)"/>
<defs>
<linearGradient id="paint0_linear" x1="22.3554" y1="12.3167" x2="24.4728" y2="26.4253" gradientUnits="userSpaceOnUse">
<stop stop-color="#2684FF"/>
<stop offset="1" stop-color="#0052CC"/>
</linearGradient>
</defs>
</svg>
